<?xml version="1.0" encoding="UTF-8" standalone="no"?>
<svg
   xmlns:dc="http://purl.org/dc/elements/1.1/"
   xmlns:cc="http://creativecommons.org/ns#"
   xmlns:rdf="http://www.w3.org/1999/02/22-rdf-syntax-ns#"
   xmlns:svg="http://www.w3.org/2000/svg"
   xmlns="http://www.w3.org/2000/svg"
   xmlns:sodipodi="http://sodipodi.sourceforge.net/DTD/sodipodi-0.dtd"
   xmlns:inkscape="http://www.inkscape.org/namespaces/inkscape"
   role="img"
   viewBox="0 0 24 24"
   version="1.1"
   id="svg6"
   sodipodi:docname="github-dark.svg"
   inkscape:version="1.0.1 (1.0.1+r73)">
  <metadata
     id="metadata12">
    <rdf:RDF>
      <cc:Work
         rdf:about="">
        <dc:format>image/svg+xml</dc:format>
        <dc:type
           rdf:resource="http://purl.org/dc/dcmitype/StillImage" />
      </cc:Work>
    </rdf:RDF>
  </metadata>
  <defs
     id="defs10" />
  <sodipodi:namedview
     pagecolor="#ffffff"
     bordercolor="#666666"
     borderopacity="1"
     objecttolerance="10"
     gridtolerance="10"
     guidetolerance="10"
     inkscape:pageopacity="0"
     inkscape:pageshadow="2"
     inkscape:window-width="1280"
     inkscape:window-height="1371"
     id="namedview8"
     showgrid="false"
     inkscape:zoom="37.5"
     inkscape:cx="7.04"
     inkscape:cy="12"
     inkscape:window-x="1280"
     inkscape:window-y="0"
     inkscape:window-maximized="0"
     inkscape:current-layer="svg6" />
  <title
     id="title2">GitHub icon</title>
  <path
     fill="#fff"
     d="m 12,0.297 c -6.63,0 -12,5.373 -12,12 0,5.303 3.438,9.8 8.205,11.385 0.6,0.113 0.8200001,-0.258 0.8200001,-0.577 0,-0.285 -0.01,-1.04 -0.015,-2.04 C 5.6719999,21.789 4.968,19.455 4.968,19.455 4.422,18.07 3.633,17.7 3.633,17.7 2.5459999,16.956 3.717,16.971 3.717,16.971 c 1.2049999,0.084 1.8379999,1.236 1.8379999,1.236 1.0700002,1.835 2.8090001,1.305 3.495,0.998 0.108,-0.776 0.417,-1.305 0.7600001,-1.605 -2.6650001,-0.3 -5.466,-1.332 -5.466,-5.93 0,-1.31 0.465,-2.38 1.2349999,-3.22 -0.135,-0.303 -0.54,-1.523 0.105,-3.176 0,0 1.005,-0.322 3.3,1.23 0.96,-0.267 1.9800001,-0.399 3.0000001,-0.405 1.02,0.006 2.04,0.138 3,0.405 2.28,-1.552 3.285,-1.23 3.285,-1.23 0.645,1.653 0.24,2.873 0.12,3.176 0.765,0.84 1.23,1.91 1.23,3.22 0,4.61 -2.805,5.625 -5.475,5.92 0.42,0.36 0.81,1.096 0.81,2.22 0,1.606 -0.015,2.896 -0.015,3.286 0,0.315 0.21,0.69 0.825,0.57 C 20.565,22.092 24,17.592 24,12.297 c 0,-6.627 -5.373,-12 -12,-12"
     id="path4"
     style="fill:#00a39d;stroke-width:0.999999;fill-opacity:1" />
</svg>
