<?xml version="1.0" encoding="UTF-8" standalone="no"?>
<svg
   xmlns:dc="http://purl.org/dc/elements/1.1/"
   xmlns:cc="http://creativecommons.org/ns#"
   xmlns:rdf="http://www.w3.org/1999/02/22-rdf-syntax-ns#"
   xmlns:svg="http://www.w3.org/2000/svg"
   xmlns="http://www.w3.org/2000/svg"
   xmlns:sodipodi="http://sodipodi.sourceforge.net/DTD/sodipodi-0.dtd"
   xmlns:inkscape="http://www.inkscape.org/namespaces/inkscape"
   width="2844.4495"
   height="627.17194"
   viewBox="0 0 752.59394 165.93923"
   version="1.1"
   id="svg8"
   sodipodi:docname="logo_serif.svg"
   inkscape:version="1.0 (b51213c273, 2020-08-10)">
  <sodipodi:namedview
     pagecolor="#ffffff"
     bordercolor="#666666"
     borderopacity="1"
     objecttolerance="10"
     gridtolerance="10"
     guidetolerance="10"
     inkscape:pageopacity="0"
     inkscape:pageshadow="2"
     inkscape:window-width="1920"
     inkscape:window-height="1015"
     id="namedview21"
     showgrid="false"
     inkscape:zoom="0.42468675"
     inkscape:cx="1422.2247"
     inkscape:cy="313.58597"
     inkscape:window-x="0"
     inkscape:window-y="0"
     inkscape:window-maximized="1"
     inkscape:current-layer="g350" />
  <defs
     id="defs2">
    <style
       id="style268">.cls-1{opacity:0.3;}.cls-2{fill:#9acf87;}.cls-3{fill:#bcdda4;}.cls-4{fill:#e3e985;}.cls-5{fill:#00a39d;}</style>
  </defs>
  <metadata
     id="metadata5">
    <rdf:RDF>
      <cc:Work
         rdf:about="">
        <dc:format>image/svg+xml</dc:format>
        <dc:type
           rdf:resource="http://purl.org/dc/dcmitype/StillImage" />
        <dc:title />
      </cc:Work>
    </rdf:RDF>
  </metadata>
  <g
     id="g362"
     transform="translate(1.8087539,0.27668121)">
    <g
       class="cls-1"
       id="g278"
       transform="matrix(0.26458333,0,0,0.26458333,-29.343941,-17.130429)">
      <path
         class="cls-2"
         d="M 674.81,461.43 C 665.87,331.35 553.16,233.14 423.08,242.09 293,251.04 194.79,363.73 203.73,493.82 a 235,235 0 0 0 58,139.47 394.49,394.49 0 0 0 412.68,-134.18 237.69,237.69 0 0 0 0.4,-37.68 z"
         id="path272" />
      <path
         class="cls-3"
         d="m 674.46,499.28 c 3.75,-26.55 12.57,-53.16 14.17,-82.69 C 697,262.44 580.44,130.86 426.3,122.5 c -154.14,-8.36 -285.88,109.84 -294.24,264 -0.33,6.21 -0.44,12.38 -0.38,18.51 a 392.38,392.38 0 0 0 215.77,149.73 c 115.55,31.6 235.05,6.87 327.01,-55.46 z"
         id="path274" />
      <path
         class="cls-4"
         d="M 392.55,84.17 C 283.94,78.28 185.19,128.1 124.07,208.7 c 54.1,170.68 209.22,298.38 398.59,308.65 a 442.32,442.32 0 0 0 151.8,-18.07 315.21,315.21 0 0 0 15.85,-83.22 C 699.74,242.18 566.43,93.59 392.55,84.17 Z"
         id="path276" />
    </g>
    <path
       class="cls-2"
       d="M 148.95612,104.22601 C 145.1911,73.711612 117.39927,52.029008 86.88487,55.807258 56.370475,59.585508 34.685225,87.350882 38.452891,117.86528 a 55.403749,55.403749 0 0 0 15.443729,32.0966 93.016915,93.016915 0 0 0 95.44579,-36.85646 56.091666,56.091666 0 0 0 -0.38629,-8.87941 z"
       id="path280"
       style="stroke-width:0.264583" />
    <path
       class="cls-3"
       d="m 149.35829,113.14247 c 0.54239,-6.29709 2.2807,-12.67619 2.2807,-19.650609 0,-36.398728 -29.12004,-65.881249 -65.521412,-65.881249 -36.401374,0 -65.910353,29.49575 -65.910353,65.897124 0,1.465792 0.05292,2.910417 0.148167,4.360334 a 92.519499,92.519499 0 0 0 52.712937,32.50671 c 27.614561,5.96635 55.432851,-1.38113 76.289961,-17.23231 z"
       id="path282"
       style="stroke-width:0.264583" />
    <path
       class="cls-4"
       d="M 77.682662,19.001071 A 74.271187,74.271187 0 0 0 16.055913,51.748549 c 14.925145,39.497 53.07277,67.585171 97.789997,67.585171 a 104.30404,104.30404 0 0 0 35.51238,-6.19125 74.464332,74.464332 0 0 0 2.66964,-19.79613 c 0,-41.060687 -33.28458,-74.345269 -74.345268,-74.345269 z"
       id="path284"
       style="stroke-width:0.264583" />
    <path
       class="cls-5"
       d="M 122.2332,116.48415 C 68.580995,116.71169 23.321371,80.299736 10.160996,30.759154 14.195892,78.325945 52.13185,117.38109 101.28614,121.30222 a 98.954165,98.954165 0 0 0 48.0695,-8.15446 115.7896,115.7896 0 0 1 -27.12244,3.33639 z"
       id="path286"
       style="stroke-width:0.264583" />
    <path
       class="cls-5"
       d="M 104.65693,131.1553 C 58.632662,136.76182 16.368121,107.7529 3.9591627,64.578195 c 0.127,1.029229 0.2645834,2.061104 0.4365625,3.092979 7.5115208,46.302086 51.1360198,77.739876 97.4354548,70.228356 a 84.547603,84.547603 0 0 0 47.04821,-24.38136 92.675603,92.675603 0 0 1 -44.22246,17.63713 z"
       id="path288"
       style="stroke-width:0.264583" />
    <path
       class="cls-5"
       d="m 116.13985,141.65132 c -34.909126,17.91494 -75.826938,11.76867 -103.833083,-12.35869 20.790958,26.65413 57.038874,38.33283 90.667413,26.41336 a 80.525936,80.525936 0 0 0 46.65663,-42.99215 93.207415,93.207415 0 0 1 -33.49096,28.93748 z"
       id="path290"
       style="stroke-width:0.264583" />
  </g>
  <g
     id="g350"
     transform="matrix(3.1319741,0,0,3.1319741,108.52586,-547.18706)">
    <g
       aria-label="Dxandi"
       id="text28"
       style="font-style:normal;font-weight:normal;font-size:56.5878px;line-height:1.25;font-family:sans-serif;fill:#000000;fill-opacity:1;stroke:none;stroke-width:1.41469">
      <path
         id="path47"
         style="font-style:normal;font-variant:normal;font-weight:bold;font-stretch:normal;font-family:'Playfair Display';-inkscape-font-specification:'Playfair Display Bold';stroke-width:1.41469"
         d="m 195.91781,178.76666 q 2.37668,0 3.73479,1.18835 1.4147,1.13175 1.4147,3.16891 0,2.03716 -1.4147,3.22551 -1.35811,1.13175 -3.73479,1.13175 -2.37669,0 -3.79139,-1.13175 -1.3581,-1.18835 -1.3581,-3.22551 0,-2.03716 1.3581,-3.16891 1.4147,-1.18835 3.79139,-1.18835 z m 4.41384,13.97719 v 24.61569 q 0,2.37669 0.79223,3.22551 0.84882,0.84881 2.82939,0.84881 v 1.18835 q -1.07517,-0.0566 -3.2255,-0.11318 -2.09375,-0.11317 -4.30067,-0.11317 -2.20693,0 -4.47044,0.11317 -2.26351,0.0566 -3.39527,0.11318 v -1.18835 q 1.98057,0 2.7728,-0.84881 0.84882,-0.84882 0.84882,-3.22551 v -17.82515 q 0,-2.54646 -0.79223,-3.7348 -0.73564,-1.24493 -2.82939,-1.24493 v -1.18834 q 1.81081,0.16976 3.50844,0.16976 2.37669,0 4.41385,-0.16976 2.09375,-0.22636 3.84797,-0.62247 z m -17.74911,-14.42989 v 38.08359 q 0,2.54645 0.79222,3.79138 0.79223,1.18835 2.82939,1.18835 v 1.18834 q -1.75422,-0.16976 -3.50844,-0.16976 -2.37669,0 -4.47044,0.16976 -2.03716,0.16976 -3.79138,0.62247 V 185.1045 q 0,-2.54645 -0.79223,-3.7348 -0.73564,-1.24493 -2.82939,-1.24493 v -1.18834 q 1.81081,0.16976 3.50845,0.16976 2.3201,0 4.41385,-0.16976 2.09374,-0.22635 3.84797,-0.62247 z m -14.42989,14.26013 q 2.48986,0 4.35726,0.84881 1.92398,0.79223 2.99915,2.71622 l -0.67905,0.62246 q -0.73564,-1.3581 -1.98058,-1.92398 -1.18834,-0.62247 -2.54645,-0.62247 -2.88597,0 -4.58361,3.39527 -1.69763,3.33868 -1.64104,10.35557 0,4.80996 0.62246,7.69594 0.67905,2.82939 1.8674,4.07432 1.24493,1.24493 2.82939,1.24493 1.92398,0 3.45185,-1.52787 1.52787,-1.52787 1.64105,-4.13091 l 0.28294,1.98057 q -0.84882,2.99916 -2.7728,4.58362 -1.8674,1.52787 -4.92314,1.52787 -3.33868,0 -5.99831,-1.64105 -2.60304,-1.64105 -4.07432,-5.03631 -1.47128,-3.45186 -1.47128,-8.88429 0,-5.14949 1.64104,-8.48817 1.64105,-3.39527 4.47044,-5.0929 2.88598,-1.69763 6.5076,-1.69763 z m -27.06488,0 q 2.37669,0 3.84797,0.62246 1.52787,0.56588 2.37669,1.58446 0.9054,1.07517 1.30152,2.7728 0.4527,1.69764 0.4527,4.58361 v 15.22212 q 0,2.37669 0.79223,3.22551 0.84881,0.84881 2.82939,0.84881 v 1.18835 q -1.07517,-0.0566 -3.22551,-0.11318 -2.15033,-0.11317 -4.24408,-0.11317 -2.15034,0 -4.24409,0.11317 -2.03716,0.0566 -3.11233,0.11318 v -1.18835 q 1.69764,0 2.37669,-0.84881 0.67905,-0.84882 0.67905,-3.22551 v -17.5988 q 0,-1.4147 -0.28293,-2.43328 -0.28294,-1.07517 -1.01858,-1.64104 -0.73565,-0.62247 -2.20693,-0.62247 -2.37669,0 -4.01773,1.8674 -1.58446,1.86739 -1.58446,4.69678 v 15.73141 q 0,2.37669 0.67905,3.22551 0.73564,0.84881 2.37669,0.84881 v 1.18835 q -1.01858,-0.0566 -2.99915,-0.11318 -1.92399,-0.11317 -4.01774,-0.11317 -2.15033,0 -4.41384,0.11317 -2.26352,0.0566 -3.39527,0.11318 v -1.18835 q 1.98057,0 2.7728,-0.84881 0.84882,-0.84882 0.84882,-3.22551 v -17.82515 q 0,-2.54646 -0.79223,-3.7348 -0.73564,-1.24493 -2.82939,-1.24493 v -1.18834 q 1.81081,0.16976 3.50844,0.16976 2.37669,0 4.41385,-0.16976 2.09375,-0.22636 3.84797,-0.62247 v 5.0929 q 1.41469,-2.88598 3.84797,-4.07432 2.43327,-1.18834 5.43243,-1.18834 z m -42.869678,30.44423 q -3.791383,0 -5.489017,-1.98057 -1.697634,-1.98057 -1.697634,-4.80996 0,-2.43328 1.075169,-3.96115 1.131756,-1.52787 2.885977,-2.48986 1.754222,-1.01858 3.678207,-1.64105 1.980576,-0.67905 3.734796,-1.30152 1.81081,-0.67905 2.88598,-1.52787 1.13175,-0.84882 1.13175,-2.15034 v -4.41384 q 0,-1.47129 -0.50929,-2.60304 -0.4527,-1.18835 -1.47128,-1.81081 -0.96199,-0.62247 -2.54645,-0.62247 -1.13176,0 -2.263513,0.33953 -1.131756,0.28294 -1.867398,1.01858 1.584459,0.56588 2.433271,1.75422 0.90541,1.13176 0.90541,2.60304 0,1.92399 -1.358108,3.05574 -1.301519,1.13176 -3.112329,1.13176 -2.03716,0 -3.112329,-1.24493 -1.01858,-1.30152 -1.01858,-3.11233 0,-1.64105 0.792229,-2.71622 0.848817,-1.07517 2.3201,-2.03716 1.584458,-0.9054 3.791383,-1.41469 2.263514,-0.50929 4.866554,-0.50929 2.60304,0 4.69678,0.56587 2.09375,0.50929 3.50845,1.92399 1.30152,1.30152 1.69763,3.2255 0.39612,1.8674 0.39612,4.75338 v 15.39188 q 0,1.35811 0.28293,1.92399 0.28294,0.56587 0.962,0.56587 0.56588,0 1.07517,-0.28294 0.50929,-0.28293 0.96199,-0.67905 l 0.56588,0.96199 q -1.18835,1.01858 -2.77281,1.58446 -1.52787,0.50929 -3.45185,0.50929 -3.39527,0 -4.52703,-1.3581 -1.07516,-1.4147 -1.13175,-3.22551 -1.4147,2.3201 -3.50845,3.45186 -2.03716,1.13175 -4.809958,1.13175 z m 4.357258,-3.62162 q 1.07517,0 1.98058,-0.50929 0.96199,-0.50929 1.86739,-1.81081 v -11.6005 q -0.67905,1.13176 -1.92398,1.92399 -1.18835,0.73564 -2.48987,1.64105 -1.24493,0.84881 -2.093744,2.20692 -0.848817,1.35811 -0.848817,3.62162 0,2.43327 1.018581,3.50844 1.01858,1.01858 2.48986,1.01858 z M 73.02768,193.36632 v 1.18834 q -1.131756,0 -1.697634,0.50929 -0.50929,0.50929 0.05659,1.41469 l 14.882591,22.12583 q 0.679054,1.01858 1.414695,1.8674 0.792229,0.79223 1.754222,0.96199 v 1.18835 q -0.848817,-0.0566 -2.603039,-0.11318 -1.697634,-0.11317 -3.451856,-0.11317 -2.037161,0 -4.187497,0.11317 -2.150336,0.0566 -3.168917,0.11318 v -1.18835 q 1.131756,0 1.641047,-0.50929 0.565877,-0.50929 0,-1.41469 L 62.785288,197.38405 q -0.961992,-1.4147 -1.641046,-2.03716 -0.622466,-0.67906 -1.52787,-0.79223 v -1.18834 q 0.961992,0.0566 2.885977,0.16976 1.923986,0.0566 3.847971,0.0566 1.867397,0 3.791382,-0.0566 1.923985,-0.11318 2.885978,-0.16976 z m -1.301519,15.61823 q 0,0 0.169763,0.67905 0.169763,0.67906 0.169763,0.67906 l -2.263512,2.88597 q -1.697634,2.20693 -1.867397,4.07432 -0.169763,1.81081 0.961993,2.94257 1.131756,1.07517 3.112329,1.24493 v 1.13176 q -1.075169,-0.0566 -2.659627,-0.0566 -1.527871,-0.0566 -2.999153,-0.0566 -1.471283,-0.0566 -2.489863,-0.0566 -2.3201,0 -3.961146,0.16977 v -1.13176 q 1.301519,-0.50929 2.489863,-1.47128 1.188344,-1.01858 2.659626,-2.88598 z m 16.070935,-15.61823 v 1.13175 q -1.188344,0.33953 -2.489864,1.47128 -1.301519,1.13176 -2.716214,2.88598 l -6.224658,7.80912 q 0,0 -0.169763,-0.62247 -0.169764,-0.67905 -0.169764,-0.67905 l 2.82939,-3.79138 q 2.3201,-2.94257 1.923985,-4.86655 -0.396114,-1.98058 -3.395267,-2.20693 v -1.13175 q 1.641046,0.0566 3.33868,0.11317 1.697634,0.0566 3.055741,0.0566 2.376687,0 4.017734,-0.16976 z M 35.302185,182.55805 q 11.147796,0 16.580225,5.0929 5.432428,5.03631 5.432428,14.48647 0,6.16807 -2.659626,10.80827 -2.659627,4.58362 -7.752529,7.13007 -5.036314,2.54645 -12.109789,2.54645 -1.358107,0 -3.904558,-0.0566 -2.489863,-0.11318 -4.35726,-0.11318 -2.489863,0 -4.923139,0.0566 -2.376687,0 -3.791382,0.11318 v -1.13176 q 1.810809,-0.11317 2.716214,-0.4527 0.905405,-0.33953 1.188344,-1.35811 0.339527,-1.01858 0.339527,-3.05574 v -28.06755 q 0,-2.09375 -0.339527,-3.05574 -0.282939,-1.01858 -1.244932,-1.35811 -0.905405,-0.39611 -2.659626,-0.4527 v -1.13175 q 1.414695,0.0566 3.791382,0.16976 2.433276,0.0566 4.809963,0 2.037161,-0.0566 4.583612,-0.11318 2.603039,-0.0566 4.300673,-0.0566 z m -0.05659,1.01858 q -2.603039,0 -3.395268,0.96199 -0.792229,0.96199 -0.792229,3.90456 v 28.2939 q 0,2.94256 0.792229,3.90455 0.848817,0.962 3.451856,0.962 4.753375,0 7.469589,-2.20693 2.772802,-2.26351 3.961146,-6.56418 1.188344,-4.30067 1.188344,-10.46874 0,-9.50675 -2.942566,-14.14695 -2.942565,-4.6402 -9.733101,-4.6402 z" />
    </g>
  </g>
</svg>
