<?xml version="1.0" encoding="UTF-8" standalone="no"?>
<svg
   xmlns:dc="http://purl.org/dc/elements/1.1/"
   xmlns:cc="http://creativecommons.org/ns#"
   xmlns:rdf="http://www.w3.org/1999/02/22-rdf-syntax-ns#"
   xmlns:svg="http://www.w3.org/2000/svg"
   xmlns="http://www.w3.org/2000/svg"
   xmlns:sodipodi="http://sodipodi.sourceforge.net/DTD/sodipodi-0.dtd"
   xmlns:inkscape="http://www.inkscape.org/namespaces/inkscape"
   role="img"
   viewBox="0 0 24 24"
   version="1.1"
   id="svg6"
   sodipodi:docname="twitter.svg"
   inkscape:version="1.0.1 (1.0.1+r73)">
  <metadata
     id="metadata12">
    <rdf:RDF>
      <cc:Work
         rdf:about="">
        <dc:format>image/svg+xml</dc:format>
        <dc:type
           rdf:resource="http://purl.org/dc/dcmitype/StillImage" />
      </cc:Work>
    </rdf:RDF>
  </metadata>
  <defs
     id="defs10" />
  <sodipodi:namedview
     pagecolor="#ffffff"
     bordercolor="#666666"
     borderopacity="1"
     objecttolerance="10"
     gridtolerance="10"
     guidetolerance="10"
     inkscape:pageopacity="0"
     inkscape:pageshadow="2"
     inkscape:window-width="1280"
     inkscape:window-height="1371"
     id="namedview8"
     showgrid="false"
     inkscape:zoom="37.5"
     inkscape:cx="12"
     inkscape:cy="12"
     inkscape:window-x="1280"
     inkscape:window-y="0"
     inkscape:window-maximized="0"
     inkscape:current-layer="svg6"
     inkscape:document-rotation="0" />
  <title
     id="title2">Twitter icon</title>
  <path
     fill="#fff"
     d="M 23.954,4.569 C 23.069,4.958 22.124,5.223 21.129,5.344 22.143,4.733 22.923,3.77 23.292,2.621 22.341,3.176 21.287,3.58 20.165,3.805 19.269,2.846 17.992,2.246 16.574,2.246 c -2.717,0 -4.92,2.203 -4.92,4.917 0,0.39 0.045,0.765 0.127,1.124 C 7.691,8.094 4.066,6.13 1.64,3.161 1.213,3.883 0.97399999,4.722 0.97399999,5.636 0.97399999,7.346 1.844,8.849 3.162,9.732 2.355,9.706 1.596,9.484 0.934,9.116 v 0.061 c 0,2.385 1.6929999,4.374 3.946,4.827 -0.4129999,0.111 -0.8489999,0.171 -1.296,0.171 -0.3140001,0 -0.615,-0.03 -0.9160001,-0.086 C 3.2990001,16.042 5.113,17.466 7.2720001,17.506 5.592,18.825 3.4629999,19.611 1.17,19.611 0.78,19.611 0.391,19.588 0,19.544 c 2.189,1.394 4.768,2.209 7.557,2.209 9.054,0 13.999,-7.496 13.999,-13.986 0,-0.209 0,-0.42 -0.015,-0.63 0.961,-0.689 1.8,-1.56 2.46,-2.548 z"
     id="path4"
     style="fill:#ffffff;stroke-width:1;fill-opacity:1" />
</svg>
