<?xml version="1.0" encoding="UTF-8" standalone="no"?>
<svg
   xmlns:dc="http://purl.org/dc/elements/1.1/"
   xmlns:cc="http://creativecommons.org/ns#"
   xmlns:rdf="http://www.w3.org/1999/02/22-rdf-syntax-ns#"
   xmlns:svg="http://www.w3.org/2000/svg"
   xmlns="http://www.w3.org/2000/svg"
   xmlns:sodipodi="http://sodipodi.sourceforge.net/DTD/sodipodi-0.dtd"
   xmlns:inkscape="http://www.inkscape.org/namespaces/inkscape"
   version="1.1"
   x="0px"
   y="0px"
   viewBox="0 0 91.987358 74.019584"
   id="svg10"
   sodipodi:docname="noun_academic_2515481.svg"
   width="91.987358"
   height="74.019585"
   inkscape:version="1.0.1 (1.0.1+r73)">
  <metadata
     id="metadata16">
    <rdf:RDF>
      <cc:Work
         rdf:about="">
        <dc:format>image/svg+xml</dc:format>
        <dc:type
           rdf:resource="http://purl.org/dc/dcmitype/StillImage" />
        <dc:title></dc:title>
      </cc:Work>
    </rdf:RDF>
  </metadata>
  <defs
     id="defs14" />
  <sodipodi:namedview
     pagecolor="#ffffff"
     bordercolor="#666666"
     borderopacity="1"
     objecttolerance="10"
     gridtolerance="10"
     guidetolerance="10"
     inkscape:pageopacity="0"
     inkscape:pageshadow="2"
     inkscape:window-width="2560"
     inkscape:window-height="1371"
     id="namedview12"
     showgrid="false"
     lock-margins="false"
     fit-margin-top="10"
     fit-margin-left="1"
     fit-margin-right="1"
     fit-margin-bottom="10"
     inkscape:zoom="7.2"
     inkscape:cx="45.987355"
     inkscape:cy="49.5196"
     inkscape:window-x="0"
     inkscape:window-y="0"
     inkscape:window-maximized="1"
     inkscape:current-layer="svg10" />
  <g
     transform="translate(-4.0126454,-965.3426)"
     id="g4">
    <path
       style="color:#000000;font-style:normal;font-variant:normal;font-weight:normal;font-stretch:normal;font-size:medium;line-height:normal;font-family:Sans;-inkscape-font-specification:Sans;text-indent:0;text-align:start;text-decoration:none;text-decoration-line:none;letter-spacing:normal;word-spacing:normal;text-transform:none;writing-mode:lr-tb;direction:ltr;baseline-shift:baseline;text-anchor:start;display:inline;overflow:visible;visibility:visible;opacity:1;fill:#000000;fill-opacity:1;stroke:none;stroke-width:1.48149;marker:none;enable-background:accumulate"
       d="m 47.25,23 a 1.0001,1.0001 0 0 0 -0.125,0.0625 l -41.5,16 a 1.0001,1.0001 0 0 0 0,1.84375 l 15.5625,6 a 1.0001,1.0001 0 0 0 0,0.09375 v 16.4375 a 1.0001,1.0001 0 0 0 0.625,0.90625 l 25.28125,10.5625 a 1.0001,1.0001 0 0 0 0.75,0 l 25.3125,-10.5625 A 1.0001,1.0001 0 0 0 73.75,63.4375 V 47 a 1.0001,1.0001 0 0 0 0,-0.0625 l 7.125,-2.75 a 1.0040202,1.0040202 0 0 0 -0.71875,-1.875 L 47.46875,54.9375 8.75,40 47.5,25.03125 l 40.4375,15.625 v 24.4375 C 85.072141,65.568778 82.875,68.037767 82.875,71 c 0,3.2988 2.725803,6 6.0625,6 C 92.274197,77 95,74.2988 95,71 95,68.037767 92.802859,65.568778 89.9375,65.09375 V 40 a 1.0001,1.0001 0 0 0 -0.625,-0.9375 l -41.46875,-16 A 1.0001,1.0001 0 0 0 47.25,23 Z M 23.1875,47.6875 47.125,56.90625 a 1.0001,1.0001 0 0 0 0.71875,0 L 71.75,47.6875 V 62.75 L 47.46875,72.90625 23.1875,62.75 Z m 65.75,19.28125 c 2.249628,0 4.03125,1.80715 4.03125,4.03125 0,2.2241 -1.781622,4 -4.03125,4 -2.249628,0 -4.0625,-1.7759 -4.0625,-4 0,-2.2241 1.812872,-4.03125 4.0625,-4.03125 z"
       transform="translate(0,952.36218)"
       id="path2" />
  </g>
</svg>
