<?xml version="1.0" encoding="UTF-8" standalone="no"?>
<svg
   xmlns:dc="http://purl.org/dc/elements/1.1/"
   xmlns:cc="http://creativecommons.org/ns#"
   xmlns:rdf="http://www.w3.org/1999/02/22-rdf-syntax-ns#"
   xmlns:svg="http://www.w3.org/2000/svg"
   xmlns="http://www.w3.org/2000/svg"
   xmlns:sodipodi="http://sodipodi.sourceforge.net/DTD/sodipodi-0.dtd"
   xmlns:inkscape="http://www.inkscape.org/namespaces/inkscape"
   viewBox="0 0 70 70"
   x="0px"
   y="0px"
   version="1.1"
   id="svg22"
   sodipodi:docname="noun_design_1561086.svg"
   width="70"
   height="70"
   inkscape:version="1.0.1 (1.0.1+r73)">
  <metadata
     id="metadata28">
    <rdf:RDF>
      <cc:Work
         rdf:about="">
        <dc:format>image/svg+xml</dc:format>
        <dc:type
           rdf:resource="http://purl.org/dc/dcmitype/StillImage" />
        <dc:title>004_Startup_Icon_64x64</dc:title>
      </cc:Work>
    </rdf:RDF>
  </metadata>
  <defs
     id="defs26" />
  <sodipodi:namedview
     pagecolor="#ffffff"
     bordercolor="#666666"
     borderopacity="1"
     objecttolerance="10"
     gridtolerance="10"
     guidetolerance="10"
     inkscape:pageopacity="0"
     inkscape:pageshadow="2"
     inkscape:window-width="2560"
     inkscape:window-height="1371"
     id="namedview24"
     showgrid="false"
     fit-margin-top="5"
     fit-margin-bottom="5"
     fit-margin-left="5"
     fit-margin-right="5"
     lock-margins="true"
     inkscape:zoom="11.25"
     inkscape:cx="35"
     inkscape:cy="43"
     inkscape:window-x="0"
     inkscape:window-y="0"
     inkscape:window-maximized="1"
     inkscape:current-layer="svg22" />
  <title
     id="title2">004_Startup_Icon_64x64</title>
  <g
     id="g16"
     transform="translate(3,3)">
    <path
       d="m 32.65,26.241 a 1,1 0 0 0 -1.3,0 l -7,6 A 1,1 0 0 0 24,33 v 8 a 1,1 0 0 0 0.293,0.707 L 27,44.414 V 46 h -1 a 1,1 0 0 0 -1,1 v 8 a 1,1 0 0 0 1,1 h 12 a 1,1 0 0 0 1,-1 v -8 a 1,1 0 0 0 -1,-1 h -1 v -1.586 l 2.707,-2.707 A 1,1 0 0 0 40,41 V 33 A 1,1 0 0 0 39.65,32.241 Z M 32,39 a 2,2 0 1 1 2,-2 2,2 0 0 1 -2,2 z M 28.707,43.293 26,40.586 V 33.46 l 5,-4.286 v 3.968 a 3.981,3.981 0 0 0 0,7.716 V 46 H 29 V 44 A 1,1 0 0 0 28.707,43.293 Z M 27,48 h 10 v 2 H 27 Z m 0,6 v -2 h 10 v 2 z M 38,40.586 35.293,43.293 A 1,1 0 0 0 35,44 v 2 h -2 v -5.142 a 3.981,3.981 0 0 0 0,-7.716 v -3.968 l 5,4.286 z"
       id="path4" />
    <rect
       x="10"
       y="6"
       width="2"
       height="2"
       id="rect6" />
    <rect
       x="14"
       y="6"
       width="2"
       height="2"
       id="rect8" />
    <rect
       x="6"
       y="6"
       width="2"
       height="2"
       id="rect10" />
    <path
       d="M 58,2 H 6 A 4,4 0 0 0 2,6 v 52 a 4,4 0 0 0 4,4 h 52 a 4,4 0 0 0 4,-4 V 6 A 4,4 0 0 0 58,2 Z M 6,4 h 52 a 2,2 0 0 1 2,2 v 4 H 4 V 6 A 2,2 0 0 1 6,4 Z M 58,60 H 6 A 2,2 0 0 1 4,58 V 12 h 56 v 46 a 2,2 0 0 1 -2,2 z"
       id="path12" />
    <path
       d="m 54,18 h -4 a 1,1 0 0 0 -1,1 v 1 H 35 v -1 a 1,1 0 0 0 -1,-1 h -4 a 1,1 0 0 0 -1,1 v 1 H 15 v -1 a 1,1 0 0 0 -1,-1 h -4 a 1,1 0 0 0 -1,1 v 4 a 1,1 0 0 0 1,1 h 4 a 1,1 0 0 0 1,-1 v -1 h 7.856 A 20.992,20.992 0 0 0 11.047,40 H 10 a 1,1 0 0 0 -1,1 v 4 a 1,1 0 0 0 1,1 h 4 a 1,1 0 0 0 1,-1 V 41 A 1,1 0 0 0 14,40 H 13.047 A 18.951,18.951 0 0 1 29,22.157 V 23 a 1,1 0 0 0 1,1 h 4 a 1,1 0 0 0 1,-1 V 22.157 A 18.951,18.951 0 0 1 50.953,40 H 50 a 1,1 0 0 0 -1,1 v 4 a 1,1 0 0 0 1,1 h 4 a 1,1 0 0 0 1,-1 V 41 A 1,1 0 0 0 54,40 H 52.953 A 20.992,20.992 0 0 0 41.144,22 H 49 v 1 a 1,1 0 0 0 1,1 h 4 a 1,1 0 0 0 1,-1 v -4 a 1,1 0 0 0 -1,-1 z m -41,4 h -2 v -2 h 2 z m 0,22 h -2 v -2 h 2 z m 40,0 h -2 v -2 h 2 z M 33,22 h -2 v -2 h 2 z m 20,0 h -2 v -2 h 2 z"
       id="path14" />
  </g>
</svg>
