<?xml version="1.0" encoding="UTF-8" standalone="no"?>
<svg
   xmlns:dc="http://purl.org/dc/elements/1.1/"
   xmlns:cc="http://creativecommons.org/ns#"
   xmlns:rdf="http://www.w3.org/1999/02/22-rdf-syntax-ns#"
   xmlns:svg="http://www.w3.org/2000/svg"
   xmlns="http://www.w3.org/2000/svg"
   xmlns:xlink="http://www.w3.org/1999/xlink"
   xmlns:sodipodi="http://sodipodi.sourceforge.net/DTD/sodipodi-0.dtd"
   xmlns:inkscape="http://www.inkscape.org/namespaces/inkscape"
   version="1.1"
   id="svg2"
   width="32"
   height="32"
   viewBox="0 0 32 32"
   sodipodi:docname="favicon-32x32.svg"
   inkscape:version="1.0.1 (1.0.1+r73)">
  <metadata
     id="metadata8">
    <rdf:RDF>
      <cc:Work
         rdf:about="">
        <dc:format>image/svg+xml</dc:format>
        <dc:type
           rdf:resource="http://purl.org/dc/dcmitype/StillImage" />
        <dc:title></dc:title>
      </cc:Work>
    </rdf:RDF>
  </metadata>
  <defs
     id="defs6"><path
   id="SVGID_1_"
   d="M2553.45,3101.44c104.27,70.15,225.24,86.82,331.38,52.47c7.81-25.45,12.02-52.49,12.02-80.53       c0-150.62-121.35-272.72-271.04-272.72c-92.64,0-174.4,46.78-223.29,118.12C2431.19,2989.72,2482.46,3053.69,2553.45,3101.44z" />

	
	
	
	
	
	

		
		
		
	</defs>
  <sodipodi:namedview
     pagecolor="#ffffff"
     bordercolor="#666666"
     borderopacity="1"
     objecttolerance="10"
     gridtolerance="10"
     guidetolerance="10"
     inkscape:pageopacity="0"
     inkscape:pageshadow="2"
     inkscape:window-width="2560"
     inkscape:window-height="1371"
     id="namedview4"
     showgrid="false"
     inkscape:zoom="9.9436891"
     inkscape:cx="34.187939"
     inkscape:cy="37.778529"
     inkscape:window-x="0"
     inkscape:window-y="0"
     inkscape:window-maximized="1"
     inkscape:current-layer="g4687" />
  <g
     inkscape:groupmode="layer"
     inkscape:label="Image"
     id="g10">
    <g
       id="g4687"
       transform="translate(384.4361,-746.97666)">
      <g
         id="g4813"
         transform="matrix(1.020314,0,0,1.020314,7.7372441,-15.33074)">
        <g
           class="st0"
           id="g4265"
           transform="matrix(0.05226652,0,0,0.05226652,-273.64765,742.56309)">
			<path
   class="st12"
   d="m -1535.91,461.43 c -8.94,-130.08 -121.65,-228.29 -251.73,-219.34 -130.08,8.95 -228.29,121.65 -219.34,251.73 3.69,53.69 25.07,101.93 58.03,139.47 42.63,11.75 87.98,16.47 134.61,12.92 113.55,-8.65 212.17,-64.61 278.03,-147.09 1.11,-12.35 1.28,-24.93 0.4,-37.69 z"
   id="path4259" />

			<path
   class="st13"
   d="m -1536.25,499.28 c 3.75,-26.55 12.57,-53.16 14.17,-82.69 8.35,-154.15 -108.19,-285.73 -262.34,-294.09 -154.15,-8.35 -285.88,109.83 -294.23,263.98 -0.34,6.21 -0.45,12.38 -0.38,18.51 50.83,70.65 125.28,125 215.77,149.75 115.56,31.6 235.05,6.87 327.01,-55.46 z"
   id="path4261" />

			<path
   class="st14"
   d="m -1818.16,84.17 c -108.61,-5.89 -207.36,43.93 -268.48,124.53 54.1,170.68 209.22,298.38 398.59,308.65 52.8,2.86 103.94,-3.65 151.8,-18.07 8.8,-26.3 14.28,-54.19 15.85,-83.22 9.42,-173.88 -123.89,-322.47 -297.76,-331.89 z"
   id="path4263" />

		</g>
        <g
           id="g4798"
           transform="translate(-1.8219662,0.50197216)">
          <g
             id="g4281"
             transform="matrix(0.05226652,0,0,0.05226652,-273.64765,742.56309)">
			<path
   class="st12"
   d="m -1536.82,458.67 c -14.23,-115.33 -119.27,-197.29 -234.6,-183.05 -115.33,14.24 -197.29,119.27 -183.05,234.6 5.87,47.6 27.22,89.5 58.37,121.31 38.5,8.4 79.09,10.42 120.41,5.01 100.63,-13.17 185.7,-67.73 240.33,-144.31 0.39,-11.04 -0.07,-22.25 -1.46,-33.56 z"
   id="path4267" />

			<path
   class="st13"
   d="m -1535.31,492.37 c 2.05,-23.81 8.62,-47.91 8.62,-74.27 0,-137.58 -110.06,-249.06 -247.64,-249.06 -137.58,0 -249.11,111.53 -249.11,249.11 0,5.54 0.2,11.04 0.56,16.49 48.64,60.42 117.52,105.2 199.24,122.85 104.36,22.56 209.51,-5.21 288.33,-65.12 z"
   id="path4269" />

			<path
   class="st14"
   d="m -1806.2,136.56 c -96.94,0 -182.41,49.09 -232.92,123.77 56.37,149.28 200.58,255.44 369.59,255.44 47.12,0 92.32,-8.26 134.22,-23.4 6.57,-23.83 10.09,-48.91 10.09,-74.83 0.01,-155.18 -125.8,-280.98 -280.98,-280.98 z"
   id="path4271" />

			<path
   class="st15"
   d="m -1637.82,504.95 c -202.78,0.86 -373.84,-136.76 -423.59,-323.99 15.25,179.79 158.64,327.39 344.42,342.21 64.47,5.14 126.43,-6.31 181.68,-30.78 -32.86,8.06 -67.19,12.41 -102.51,12.56 z"
   id="path4273" />

			<path
   class="st15"
   d="m -1704.25,560.45 c -173.95,21.19 -333.69,-88.42 -380.6,-251.62 0.49,3.89 1.02,7.78 1.65,11.68 28.4,174.99 193.27,293.83 368.26,265.43 70.31,-11.41 131.55,-44.87 177.82,-92.15 -47.39,35.23 -104.31,59.01 -167.13,66.66 z"
   id="path4275" />

			<g
   id="g4279">
				<path
   class="st15"
   d="m -1660.86,600.12 c -131.94,67.72 -286.59,44.48 -392.43,-46.7 78.61,100.74 215.62,144.88 342.67,99.82 81.71,-28.98 143.38,-89.21 176.34,-162.49 -31.77,44.67 -74.43,82.6 -126.58,109.37 z"
   id="path4277" />

			</g>

		</g>
        </g>
      </g>
      <g
         id="Layer_3">
</g>
      <g
         id="Layer_4">
</g>
      <g
         id="Layer_2"
         class="st16">
	<g
   class="st17"
   id="g4383">
		<g
   id="g4354">
			<g
   id="g4306">
				<g
   id="g4304">
					<path
   class="st18"
   d="m 2553.45,3101.44 c 104.27,70.15 225.24,86.82 331.38,52.47 7.81,-25.45 12.02,-52.49 12.02,-80.53 0,-150.62 -121.35,-272.72 -271.04,-272.72 -92.64,0 -174.4,46.78 -223.29,118.12 28.67,70.94 79.94,134.91 150.93,182.66 z"
   id="path4302" />

				</g>

			</g>

			<g
   id="g4320">
				<defs
   id="defs4309">
					<path
   id="path4591"
   d="m 2553.45,3101.44 c 104.27,70.15 225.24,86.82 331.38,52.47 7.81,-25.45 12.02,-52.49 12.02,-80.53 0,-150.62 -121.35,-272.72 -271.04,-272.72 -92.64,0 -174.4,46.78 -223.29,118.12 28.67,70.94 79.94,134.91 150.93,182.66 z" />

				</defs>

				<clipPath
   id="SVGID_2_">
					<use
   xlink:href="#SVGID_1_"
   style="overflow:visible"
   id="use4311"
   x="0"
   y="0"
   width="100%"
   height="100%" />

				</clipPath>

				<g
   class="st19"
   clip-path="url(#SVGID_2_)"
   id="g4318">
					<g
   id="g4316">
						<path
   class="st20"
   d="m 2926.87,2786.8 c -79.32,-131.55 -204.75,-212.47 -340.09,-229.2 -21.79,24.17 -40.41,51.96 -54.88,83.02 -77.75,166.89 -6.33,364.82 159.53,442.09 102.64,47.82 217.39,38.2 308.38,-15.62 4.86,-93.4 -18.94,-190.74 -72.94,-280.29 z"
   id="path4314" />

					</g>

				</g>

			</g>

			<g
   id="g4326">
				<g
   id="g4324">
					<path
   class="st21"
   d="m 2535.35,3109.06 c -43.91,-31.19 -79.43,-68.94 -105.82,-110.66 -10.04,21.26 -17.11,44.21 -20.66,68.32 39.94,50.95 95.5,91.98 163.08,117.07 110.27,40.94 224.23,27.99 312.04,-29.15 0.03,-0.12 0.05,-0.23 0.08,-0.35 -109.73,46.4 -239.93,32.04 -348.72,-45.23 z"
   id="path4322" />

				</g>

			</g>

			<g
   id="g4332">
				<g
   id="g4330">
					<path
   class="st22"
   d="m 2566.86,3197.37 c -35.49,-13.18 -67.48,-30.99 -95.41,-52.46 0.97,27.75 7.33,54.12 18.06,78.08 42.28,23.66 91.6,37.81 145.09,39.92 102.09,4.04 192.81,-37.57 249.99,-108.68 -85.68,67.11 -203.78,85.45 -317.73,43.14 z"
   id="path4328" />

				</g>

			</g>

			<g
   id="g4352">
				<g
   id="g4338">
					<g
   id="g4336">
						<path
   class="st23"
   d="m 2634.04,3275.5 c 105.25,4.16 197.76,-42.81 250.55,-121.27 -57.18,71.11 -147.9,112.72 -249.99,108.68 -103.39,-4.09 -191.23,-53.11 -242.75,-129.02 46.49,82.88 135.63,137.39 242.19,141.61 z"
   id="path4334" />

					</g>

				</g>

				<g
   id="g4344">
					<g
   id="g4342">
						<path
   class="st24"
   d="m 2566.86,3197.37 c 113.95,42.31 232.05,23.97 317.73,-43.14 -87.89,57.48 -202.12,70.58 -312.65,29.55 -111.94,-41.56 -190.91,-126.82 -220.52,-228.55 21.62,107.56 100.08,199.31 215.44,242.14 z"
   id="path4340" />

					</g>

				</g>

				<g
   id="g4350">
					<g
   id="g4348">
						<path
   class="st25"
   d="m 2535.35,3109.06 c 109.01,77.44 239.53,91.7 349.4,44.93 -109.5,35.91 -234.43,17.2 -340.17,-57.91 -107.09,-76.07 -166.86,-189.11 -169.61,-305.54 -7.38,120.33 50.01,240.11 160.38,318.52 z"
   id="path4346" />

					</g>

				</g>

			</g>

		</g>

		<g
   id="BHJyZR.tif_15_">
			<g
   id="g4380">
				<g
   id="g4358">
					<path
   class="st20"
   d="m 2679.26,3382.66 c -2.71,3.28 -1.65,6.57 -1.67,9.58 -0.1,25.4 0.03,50.8 -0.14,76.2 -0.03,4.57 1.45,11.72 -5.22,11.77 -7.14,0.05 -4.91,-7.28 -4.93,-11.66 -0.2,-34.35 -0.11,-68.7 -0.11,-103.05 0,-1.15 -0.04,-2.31 0.04,-3.46 0.2,-2.82 -0.48,-6.51 2.77,-7.57 3.77,-1.23 5.44,2.5 7.18,5 1.97,2.82 3.39,6.03 5.27,8.93 17.55,27.12 35.15,54.22 52.76,81.3 0.75,1.16 1.78,2.13 2.82,3.36 3.06,-2.93 1.81,-6.28 1.83,-9.22 0.12,-25.4 0.05,-50.8 0.09,-76.2 0,-2.87 0.15,-5.77 0.55,-8.61 0.31,-2.2 1.87,-3.58 4.15,-3.75 2.67,-0.2 4.53,1.15 5.05,3.72 0.46,2.24 0.57,4.58 0.57,6.87 0.03,34.93 0.07,69.85 -0.05,104.78 -0.01,3.48 1.55,8.47 -3.29,9.63 -4.51,1.08 -5.81,-3.6 -7.82,-6.71 -18.79,-29.07 -37.66,-58.09 -56.53,-87.1 -0.88,-1.35 -2.11,-2.44 -3.32,-3.81 z"
   id="path4356" />

				</g>

				<g
   id="g4362">
					<path
   class="st20"
   d="m 2762.33,3416.9 c -0.01,-16.72 -0.06,-33.45 0.01,-50.17 0.04,-11.24 1.03,-11.65 12.51,-12.32 21.67,-1.27 40.83,3.2 56.64,19.56 30.05,31.1 19.83,87.45 -24.5,102.46 -12.58,4.26 -25.02,2.57 -37.56,2.88 -6.3,0.16 -7.11,-4.62 -7.1,-9.64 0.03,-17.59 0.01,-35.18 0,-52.77 z m 8.89,0.28 c 0,14.72 0.26,29.45 -0.11,44.16 -0.18,7.29 2.8,10.08 9.75,9.36 6.01,-0.62 12.06,-1 18.05,-1.84 22.74,-3.19 44.23,-32.5 40.52,-55.11 -5.29,-32.27 -25.29,-49.5 -58.01,-50.46 -7.26,-0.21 -10.55,1.89 -10.32,9.72 0.42,14.72 0.12,29.45 0.12,44.17 z"
   id="path4360" />

				</g>

				<g
   id="g4366">
					<path
   class="st20"
   d="m 2374.45,3417.02 c 0,-17.3 0.23,-34.61 -0.11,-51.91 -0.15,-7.89 3.11,-10.23 10.74,-10.78 28.01,-2.01 51.47,5.58 66.76,30.56 19.51,31.87 6.86,77.22 -31.82,91.25 -12.78,4.63 -25.55,2.95 -38.39,3.2 -6.28,0.12 -7.21,-4.44 -7.2,-9.54 0.06,-17.6 0.03,-35.19 0.02,-52.78 z m 8.89,-0.37 c 0,15.3 0.12,30.6 -0.06,45.9 -0.07,5.96 2.47,8.61 8.29,8.13 6.31,-0.52 12.64,-0.97 18.92,-1.76 23.11,-2.91 44.97,-32.58 40.98,-55.48 -5.62,-32.19 -24.75,-48.74 -57.41,-50.11 -7.51,-0.32 -11.19,1.62 -10.88,10.04 0.53,14.4 0.14,28.84 0.16,43.28 z"
   id="path4364" />

				</g>

				<g
   id="g4370">
					<path
   class="st20"
   d="m 2575.8,3472.98 c 3.91,-12.62 7.81,-25.24 11.75,-37.85 7.7,-24.68 15.34,-49.38 23.21,-74 0.86,-2.68 0.21,-7.42 4.61,-7.21 3.9,0.19 5.18,4.18 6.21,7.48 4.63,14.8 9.19,29.63 13.72,44.46 6.55,21.43 13.06,42.87 19.62,64.29 0.93,3.04 2.75,6.45 -1.31,8.22 -4.26,1.86 -6.78,-0.99 -7.34,-4.81 -2.01,-13.71 -10.67,-16.3 -22.76,-15 -7.69,0.83 -15.55,0.46 -23.3,0.07 -7.13,-0.35 -11.57,1.96 -12.94,9.43 -0.5,2.75 -2.01,5.37 -3.35,7.9 -1.18,2.22 -3.13,3.46 -5.74,2.27 -2.26,-1 -2.34,-3.01 -2.38,-5.25 z m 40.83,-93.14 c -1.72,2.48 -2.63,3.3 -2.94,4.31 -6.14,19.79 -12.28,39.59 -18.26,59.43 -1.48,4.91 1.81,6.12 5.76,6.15 9.52,0.08 19.04,-0.07 28.55,0.08 6.22,0.1 7.61,-3.2 6.04,-8.34 -6.13,-20.01 -12.4,-39.97 -19.15,-61.63 z"
   id="path4368" />

				</g>

				<g
   id="g4374">
					<path
   class="st20"
   d="m 2556.84,3479.08 c -5.28,-0.42 -6.97,-4.39 -9.11,-7.72 -7.95,-12.36 -15.72,-24.85 -23.76,-37.15 -4.97,-7.61 -6.32,-7.6 -11.27,0 -7.7,11.84 -15.15,23.84 -22.75,35.74 -1.39,2.18 -2.82,4.37 -4.48,6.35 -2,2.38 -4.71,3.86 -7.6,1.97 -3.45,-2.26 -1.45,-5.11 0.08,-7.52 9.43,-14.84 18.57,-29.89 28.58,-44.33 5.05,-7.28 5.15,-12.97 0.08,-20.26 -9.21,-13.24 -17.59,-27.07 -26.16,-40.74 -1.83,-2.91 -5.84,-6.46 -1.05,-9.58 4.17,-2.72 6.83,0.93 8.93,4.21 8.24,12.86 16.38,25.79 24.69,38.61 5.49,8.46 6.38,8.14 11.81,-0.69 7.85,-12.76 16.19,-25.23 24.32,-37.82 0.47,-0.73 0.93,-1.47 1.5,-2.12 2.27,-2.61 5.14,-4.4 8.27,-2.08 3.2,2.37 1.02,5.21 -0.52,7.61 -9.61,15.07 -19.02,30.27 -29.03,45.07 -3.98,5.89 -4.13,10.42 -0.08,16.38 10.04,14.78 19.43,29.99 29.04,45.06 2.24,3.54 4.62,7.26 -1.49,9.01 z"
   id="path4372" />

				</g>

				<g
   id="g4378">
					<path
   class="st20"
   d="m 2873.58,3416.99 c 0,17.88 0.05,35.75 -0.04,53.63 -0.02,3.28 0.79,7.89 -4.28,7.89 -4.81,0 -4.6,-4.45 -4.61,-7.84 -0.07,-35.75 -0.07,-71.51 0,-107.26 0.01,-3.39 -0.22,-7.84 4.56,-7.89 5.06,-0.06 4.31,4.55 4.33,7.84 0.08,17.88 0.04,35.75 0.04,53.63 z"
   id="path4376" />

				</g>

			</g>

		</g>

	</g>

	<g
   class="st26"
   id="g4490">
		<g
   id="g4459">
			<g
   id="g4457">
				<g
   id="g4389">
					<g
   id="g4387">
						<path
   class="st27"
   d="m 1396.97,3102.39 c 107.3,72.19 231.79,89.35 341.01,53.99 8.03,-26.19 12.36,-54.02 12.36,-82.87 0,-155 -124.87,-280.65 -278.92,-280.65 -95.33,0 -179.48,48.14 -229.78,121.56 29.52,73 82.29,138.82 155.33,187.97 z"
   id="path4385" />

					</g>

				</g>

				<g
   id="g4395">
					<g
   id="g4393">
						<path
   class="st27"
   d="m 1396.97,3102.39 c 107.3,72.19 231.79,89.35 341.01,53.99 8.03,-26.19 12.36,-54.02 12.36,-82.87 0,-155 -124.87,-280.65 -278.92,-280.65 -95.33,0 -179.48,48.14 -229.78,121.56 29.52,73 82.29,138.82 155.33,187.97 z"
   id="path4391" />

					</g>

				</g>

				<g
   id="g4401">
					<g
   id="g4399">
						<path
   class="st28"
   d="m 1378.36,3110.22 c -45.19,-32.1 -81.74,-70.94 -108.9,-113.88 -10.34,21.87 -17.61,45.49 -21.26,70.3 41.1,52.44 98.27,94.65 167.82,120.47 113.48,42.13 230.75,28.8 321.11,-30 0.03,-0.12 0.05,-0.24 0.08,-0.36 -112.92,47.77 -246.91,33 -358.85,-46.53 z"
   id="path4397" />

					</g>

				</g>

				<g
   id="g4407">
					<g
   id="g4405">
						<path
   class="st29"
   d="m 1410.78,3201.11 c -36.52,-13.56 -69.44,-31.89 -98.18,-53.99 1,28.56 7.54,55.7 18.59,80.35 43.51,24.35 94.27,38.9 149.31,41.08 105.05,4.15 198.41,-38.67 257.25,-111.84 -88.17,69.07 -209.7,87.94 -326.97,44.4 z"
   id="path4403" />

					</g>

				</g>

				<g
   class="st30"
   id="g4435">
					<g
   id="g4433">
						<g
   id="g4413">
							<g
   id="g4411">
								<path
   class="st27"
   d="m 1353.65,3087.95 c 107.3,72.19 231.79,89.35 341.01,53.99 8.03,-26.19 12.36,-54.02 12.36,-82.87 0,-155 -124.88,-280.65 -278.92,-280.65 -95.33,0 -179.48,48.14 -229.78,121.56 29.52,73 82.29,138.82 155.33,187.97 z"
   id="path4409" />

							</g>

						</g>

						<g
   id="g4419">
							<g
   id="g4417">
								<path
   class="st27"
   d="m 1353.65,3087.95 c 107.3,72.19 231.79,89.35 341.01,53.99 8.03,-26.19 12.36,-54.02 12.36,-82.87 0,-155 -124.88,-280.65 -278.92,-280.65 -95.33,0 -179.48,48.14 -229.78,121.56 29.52,73 82.29,138.82 155.33,187.97 z"
   id="path4415" />

							</g>

						</g>

						<g
   id="g4425">
							<g
   id="g4423">
								<path
   class="st28"
   d="m 1335.04,3095.78 c -45.19,-32.1 -81.74,-70.94 -108.9,-113.88 -10.34,21.87 -17.61,45.49 -21.26,70.3 41.1,52.44 98.27,94.65 167.82,120.47 113.48,42.13 230.75,28.8 321.11,-30 0.03,-0.12 0.05,-0.24 0.08,-0.36 -112.92,47.77 -246.91,33 -358.85,-46.53 z"
   id="path4421" />

							</g>

						</g>

						<g
   id="g4431">
							<g
   id="g4429">
								<path
   class="st29"
   d="m 1367.46,3186.67 c -36.52,-13.56 -69.44,-31.89 -98.18,-53.99 1,28.56 7.54,55.7 18.59,80.35 43.51,24.35 94.27,38.9 149.31,41.08 105.05,4.15 198.41,-38.67 257.25,-111.84 -88.17,69.07 -209.7,87.94 -326.97,44.4 z"
   id="path4427" />

							</g>

						</g>

					</g>

				</g>

				<g
   id="g4455">
					<g
   id="g4441">
						<g
   id="g4439">
							<path
   class="st31"
   d="m 1479.91,3281.51 c 108.31,4.28 203.51,-44.05 257.84,-124.79 -58.84,73.18 -152.2,116 -257.25,111.84 -106.4,-4.21 -196.79,-54.65 -249.81,-132.78 47.83,85.29 139.57,141.39 249.22,145.73 z"
   id="path4437" />

						</g>

					</g>

					<g
   id="g4447">
						<g
   id="g4445">
							<path
   class="st31"
   d="m 1410.78,3201.11 c 117.26,43.54 238.79,24.67 326.97,-44.4 -90.45,59.15 -208,72.63 -321.74,30.41 -115.2,-42.77 -196.46,-130.51 -226.93,-235.19 22.25,110.68 102.98,205.1 221.7,249.18 z"
   id="path4443" />

						</g>

					</g>

					<g
   id="g4453">
						<g
   id="g4451">
							<path
   class="st31"
   d="m 1378.36,3110.22 c 112.18,79.69 246.5,94.36 359.56,46.24 -112.68,36.96 -241.25,17.7 -350.06,-59.59 -110.21,-78.29 -171.72,-194.61 -174.54,-314.43 -7.61,123.84 51.45,247.1 165.04,327.78 z"
   id="path4449" />

						</g>

					</g>

				</g>

			</g>

		</g>

		<g
   id="g4488">
			<g
   id="_x38_bITdr.tif_1_">
				<g
   id="g4485">
					<g
   id="g4463">
						<path
   class="st32"
   d="m 1559.98,3494.5 c 0,-28.09 0,-56.18 0,-84.27 0,-5.38 -0.26,-10.78 0.08,-16.15 0.39,-6.22 -2,-15.33 7.65,-15.53 10.27,-0.22 7.02,9.19 7.49,15.15 3.65,46.29 1.42,92.68 2.06,139.03 0.04,2.9 0.12,5.8 -0.04,8.69 -0.29,5.27 0.64,11.45 -6.6,12.97 -7.51,1.58 -10.01,-3.49 -12.09,-9.48 -9.46,-27.32 -19.12,-54.57 -28.73,-81.83 -3.96,-11.25 -7.95,-22.5 -12.25,-34.66 -3.54,3.77 -2.36,7.59 -2.36,10.93 -0.08,32.3 0,64.6 0,96.9 0,3.72 -0.03,7.46 -0.37,11.16 -0.38,4.11 -2.17,7.14 -7,6.95 -4.49,-0.17 -6.76,-2.77 -7.31,-6.97 -0.32,-2.45 -0.42,-4.95 -0.42,-7.43 -0.03,-48.86 -0.03,-97.73 -0.03,-146.59 0,-1.24 0,-2.49 0.06,-3.73 0.25,-5.1 0.54,-10.36 7.02,-11.48 6.65,-1.15 9.92,2.95 11.86,8.51 8.7,24.96 17.35,49.95 26.05,74.91 3.89,11.18 7.85,22.34 11.77,33.51 1.05,-0.18 2.11,-0.39 3.16,-0.59 z"
   id="path4461" />

					</g>

					<g
   id="g4467">
						<path
   class="st32"
   d="m 1480.45,3472.6 c 0,22.77 0.14,45.55 -0.11,68.32 -0.06,5.33 1.81,13.15 -7,13.26 -9.32,0.11 -7.72,-7.86 -8.12,-13.83 -0.19,-2.89 -0.04,-5.79 -0.05,-8.69 -0.04,-19.91 -0.04,-19.91 -20,-19.92 -19.84,0 -19.84,0 -19.88,19.89 -0.01,3.31 0.24,6.65 -0.08,9.93 -0.53,5.38 1.47,13.09 -7.62,12.63 -8.47,-0.42 -6.8,-7.79 -7.34,-13.33 -1.18,-12.1 3.32,-24.99 -5.08,-36.12 -0.65,-0.86 -0.96,-2.61 -0.54,-3.54 12.06,-26.58 3.05,-54.57 5.34,-81.8 0.81,-9.63 1.75,-18.87 5.95,-27.61 7.7,-16.02 20.43,-21.19 42.23,-17.13 11.73,2.19 21.66,15 21.89,29.62 0.36,22.77 0.1,45.54 0.1,68.32 0.12,0 0.22,0 0.31,0 z m -15.32,-25.45 c -0.01,0 -0.03,0 -0.04,0 0,-13.25 0.24,-26.5 -0.08,-39.73 -0.24,-9.84 -3.46,-18.23 -14.82,-19.69 -10.86,-1.4 -18.4,2.91 -21.86,13.85 -1.9,6 -3.05,11.98 -3.02,18.26 0.07,16.97 0.01,33.94 0.01,50.91 0,27.83 -0.01,27.63 28.59,26.07 7.79,-0.42 11.41,-3.27 11.28,-11.17 -0.21,-12.84 -0.06,-25.67 -0.06,-38.5 z"
   id="path4465" />

					</g>

					<g
   id="g4471">
						<path
   class="st32"
   d="m 1594.85,3466.38 c 0,-24.45 0.4,-48.9 -0.17,-73.34 -0.28,-12.06 4.78,-17.06 16.34,-15.54 35.82,4.71 60.97,23.74 76.33,56.3 27.02,57.26 -25.38,122.82 -77.58,121.36 -11.55,-0.32 -15.31,-4.39 -15.08,-15.44 0.5,-24.44 0.16,-48.89 0.16,-73.34 z m 15.1,-0.11 c 0,21.49 0,42.99 0,64.48 0,6.66 1.52,11.99 9.98,9.77 35.5,-9.34 58.94,-43.34 59.76,-72.67 0.69,-24.83 -20.48,-62.53 -55.96,-72.86 -10.94,-3.19 -13.58,-2.15 -13.72,9.28 -0.26,20.66 -0.08,41.33 -0.06,62 z"
   id="path4469" />

					</g>

					<g
   id="g4475">
						<path
   class="st32"
   d="m 1315.38,3465.47 c -0.15,47.76 -42.01,90.37 -85.11,89.57 -8.82,-0.17 -12.83,-2.9 -12.79,-12.18 0.22,-50.92 0.25,-101.85 -0.03,-152.78 -0.06,-10.08 4.64,-12.68 13.74,-12.74 30.35,-0.2 67.5,28.47 78.93,61.55 3.25,9.39 7.02,18.74 5.26,26.58 z m -84.6,0.69 c 0,21.49 0,42.99 0,64.48 0,6.58 1.36,12.14 9.87,9.91 34.98,-9.18 58.25,-42.02 59.83,-71.33 1.41,-26.11 -20.71,-64.02 -55.81,-74.17 -11.07,-3.2 -13.67,-2.27 -13.82,9.12 -0.27,20.65 -0.08,41.32 -0.07,61.99 z"
   id="path4473" />

					</g>

					<g
   id="g4479">
						<path
   class="st32"
   d="m 1359.67,3438.57 c 5.23,-15.2 10.4,-30.42 15.74,-45.58 1.22,-3.48 2.79,-6.89 4.62,-10.09 2.3,-4.01 5.95,-6.15 10.48,-4.09 5.22,2.38 3.5,6.48 2.07,10.62 -7.67,22.28 -14.44,44.9 -23.04,66.8 -4.21,10.72 -0.51,19.37 2.52,28.61 6.31,19.24 12.97,38.37 19.46,57.55 1.36,4.03 5.48,8.86 -1.09,11.57 -6.27,2.59 -10.68,-1.41 -12.74,-6.8 -4.57,-11.96 -8.42,-24.18 -12.64,-36.27 -1.84,-5.28 -3.88,-10.5 -7.08,-19.12 -6.68,18.92 -12.21,34.33 -17.52,49.82 -1.36,3.96 -2.41,8.01 -5.68,10.85 -3.14,2.73 -6.93,3.06 -10.46,1.12 -3.94,-2.17 -2.28,-5.51 -1.17,-8.71 7.46,-21.5 13.87,-43.43 22.62,-64.39 4.76,-11.4 1.83,-20.86 -1.53,-30.89 -6.57,-19.62 -13.47,-39.13 -20.35,-58.65 -1.49,-4.22 -4.97,-8.88 0.94,-11.84 6.31,-3.17 10.69,0.97 12.8,6.26 4.6,11.51 8.4,23.34 12.57,35.03 2.19,6.14 4.44,12.25 6.66,18.37 0.93,-0.06 1.87,-0.12 2.82,-0.17 z"
   id="path4477" />

					</g>

					<g
   id="g4483">
						<path
   class="st32"
   d="m 1717.89,3465.73 c 0,25.65 0.13,51.29 -0.13,76.94 -0.04,4.35 2.27,11.12 -5.63,11.41 -7.01,0.26 -7.41,-5.53 -7.42,-10.58 -0.08,-51.29 -0.08,-102.59 0,-153.88 0.01,-4.98 0.24,-11.01 7.13,-10.91 7.58,0.11 5.93,6.75 5.96,11.32 0.18,25.23 0.09,50.47 0.09,75.7 z"
   id="path4481" />

					</g>

				</g>

			</g>

		</g>

	</g>

</g>
    </g>
  </g>
  <style
     type="text/css"
     id="style4133">
	.st0{opacity:0.3;}
	.st1{fill:#656666;}
	.st2{fill:#7E7F7F;}
	.st3{fill:#B2B2B2;}
	.st4{fill:#666666;}
	.st5{fill:#7F7F7F;}
	.st6{fill:#BCBEC0;}
	.st7{fill:#D1D3D4;}
	.st8{fill:#E6E7E8;}
	.st9{fill:#999999;}
	.st10{fill:#CCCCCC;}
	.st11{fill:#FFFFFF;}
	.st12{fill:#9ACF87;}
	.st13{fill:#BCDDA4;}
	.st14{fill:#E3E985;}
	.st15{fill:#00A39D;}
	.st16{display:none;}
	.st17{display:inline;opacity:0.5;}
	.st18{fill:#82D5FF;}
	.st19{opacity:0.47;clip-path:url(#SVGID_2_);}
	.st20{fill:#88D7FF;}
	.st21{fill:#5ABFFF;}
	.st22{fill:#20A7FF;}
	.st23{fill:#FA7E1C;}
	.st24{fill:#FFA530;}
	.st25{fill:#FFCE4E;}
	.st26{display:inline;}
	.st27{fill:#CBE981;}
	.st28{fill:#BFF7A7;}
	.st29{fill:#A2E49B;}
	.st30{opacity:0.4;}
	.st31{fill:#37989A;}
	.st32{fill:#303030;}
</style>
</svg>
