<?xml version="1.0" encoding="UTF-8" standalone="no"?>
<svg
   xmlns:dc="http://purl.org/dc/elements/1.1/"
   xmlns:cc="http://creativecommons.org/ns#"
   xmlns:rdf="http://www.w3.org/1999/02/22-rdf-syntax-ns#"
   xmlns:svg="http://www.w3.org/2000/svg"
   xmlns="http://www.w3.org/2000/svg"
   xmlns:sodipodi="http://sodipodi.sourceforge.net/DTD/sodipodi-0.dtd"
   xmlns:inkscape="http://www.inkscape.org/namespaces/inkscape"
   width="2306.0386"
   height="524.11108"
   viewBox="0 0 610.13939 138.67106"
   version="1.1"
   id="svg8"
   inkscape:version="1.0 (b51213c273, 2020-08-10)"
   sodipodi:docname="logo_serif.svg">
  <defs
     id="defs2">
    <rect
       x="196.70242"
       y="662.90881"
       width="1087.5679"
       height="293.37762"
       id="rect589" />
    <rect
       x="125.92178"
       y="655.65515"
       width="1187.7275"
       height="429.64713"
       id="rect583" />
    <rect
       x="49.506981"
       y="649.83301"
       width="1422.5009"
       height="382.30984"
       id="rect577" />
    <rect
       x="667.52777"
       y="682.66309"
       width="1200.0769"
       height="384.52603"
       id="rect565" />
    <style
       id="style87">.cls-1{opacity:0.3;}.cls-2{fill:#00aae7;}.cls-3{fill:#58b6e7;}.cls-4{fill:#7dcef1;}.cls-5{fill:#003660;}</style>
    <style
       id="style224">.cls-1{opacity:0.3;}.cls-2{fill:#00aae7;}.cls-3{fill:#58b6e7;}.cls-4{fill:#7dcef1;}.cls-5{fill:#003660;}</style>
    <style
       id="style361">.cls-1{opacity:0.3;}.cls-2{fill:#00aae7;}.cls-3{fill:#58b6e7;}.cls-4{fill:#7dcef1;}.cls-5{fill:#003660;}</style>
  </defs>
  <sodipodi:namedview
     id="base"
     pagecolor="#ffffff"
     bordercolor="#666666"
     borderopacity="1.0"
     inkscape:pageopacity="0.0"
     inkscape:pageshadow="2"
     inkscape:zoom="0.35"
     inkscape:cx="1217.3181"
     inkscape:cy="481.04238"
     inkscape:document-units="px"
     inkscape:current-layer="g145"
     inkscape:document-rotation="0"
     showgrid="false"
     units="px"
     fit-margin-top="20"
     fit-margin-left="20"
     fit-margin-right="20"
     fit-margin-bottom="20"
     lock-margins="true"
     inkscape:window-width="1920"
     inkscape:window-height="1015"
     inkscape:window-x="0"
     inkscape:window-y="0"
     inkscape:window-maximized="1" />
  <metadata
     id="metadata5">
    <rdf:RDF>
      <cc:Work
         rdf:about="">
        <dc:format>image/svg+xml</dc:format>
        <dc:type
           rdf:resource="http://purl.org/dc/dcmitype/StillImage" />
        <dc:title></dc:title>
      </cc:Work>
    </rdf:RDF>
  </metadata>
  <g
     inkscape:label="Layer 1"
     inkscape:groupmode="layer"
     id="layer1"
     transform="translate(2.3262669,3.1896719)">
    <g
       id="g145"
       transform="matrix(0.26458333,0,0,0.26458333,-32.545933,-22.393012)">
      <g
         class="cls-1"
         id="g371"
         transform="matrix(0.82447927,0,0,0.82447927,31.92292,23.571295)">
        <path
           class="cls-2"
           d="M 674.81,461.43 C 665.87,331.35 553.16,233.14 423.08,242.09 293,251.04 194.79,363.73 203.73,493.82 a 235,235 0 0 0 58,139.47 394.49,394.49 0 0 0 412.68,-134.18 237.69,237.69 0 0 0 0.4,-37.68 z"
           id="path365" />
        <path
           class="cls-3"
           d="m 674.46,499.28 c 3.75,-26.55 12.57,-53.16 14.17,-82.69 C 697,262.44 580.44,130.86 426.3,122.5 c -154.14,-8.36 -285.88,109.84 -294.24,264 -0.33,6.21 -0.44,12.38 -0.38,18.51 a 392.38,392.38 0 0 0 215.77,149.73 c 115.55,31.6 235.05,6.87 327.01,-55.46 z"
           id="path367" />
        <path
           class="cls-4"
           d="M 392.55,84.17 C 283.94,78.28 185.19,128.1 124.07,208.7 c 54.1,170.68 209.22,298.38 398.59,308.65 a 442.32,442.32 0 0 0 151.8,-18.07 315.21,315.21 0 0 0 15.85,-83.22 C 699.74,242.18 566.43,93.59 392.55,84.17 Z"
           id="path369" />
      </g>
      <path
         class="cls-2"
         d="M 587.53126,401.7352 C 575.79892,306.64801 489.19561,239.08193 394.10842,250.8555 299.02122,262.62906 231.4469,349.14991 243.18749,444.23711 a 172.64596,172.64596 0 0 0 48.12485,100.01758 289.85393,289.85393 0 0 0 297.42265,-114.84996 174.78961,174.78961 0 0 0 -1.20373,-27.66953 z"
         id="path373"
         style="stroke-width:0.824479" />
      <path
         class="cls-3"
         d="m 588.78446,429.52015 c 1.69019,-19.6226 7.10702,-39.5008 7.10702,-61.23407 0,-113.42362 -90.74219,-205.29534 -204.17405,-205.29534 -113.43186,0 -205.38603,91.91295 -205.38603,205.34481 0,4.56761 0.16489,9.06927 0.46171,13.58741 a 288.30391,288.30391 0 0 0 164.261,101.29553 c 86.0509,18.59201 172.73665,-4.30378 237.73035,-53.69834 z"
         id="path375"
         style="stroke-width:0.824479" />
      <path
         class="cls-4"
         d="m 365.43303,136.16218 a 231.43958,231.43958 0 0 0 -192.03771,102.0458 c 46.50887,123.07827 165.38229,210.60499 304.72754,210.60499 a 325.02622,325.02622 0 0 0 110.6616,-19.29282 232.04145,232.04145 0 0 0 8.319,-61.68754 c 0,-127.95093 -103.71949,-231.67043 -231.67043,-231.67043 z"
         id="path377"
         style="stroke-width:0.824479" />
      <path
         class="cls-5"
         d="M 504.25885,439.93333 C 337.07094,440.64238 196.03552,327.17754 155.02592,172.80204 167.59923,321.02693 285.81307,442.72831 438.98483,454.94709 a 308.35525,308.35525 0 0 0 149.79139,-25.41045 360.81686,360.81686 0 0 1 -84.51737,10.39669 z"
         id="path379"
         style="stroke-width:0.824479" />
      <path
         class="cls-5"
         d="M 449.48869,485.6507 C 306.07052,503.12142 174.3682,412.72551 135.70013,278.18698 c 0.39575,3.20723 0.82447,6.4227 1.36039,9.63817 23.40696,144.28387 159.34711,242.24849 303.62273,218.84153 A 263.46235,263.46235 0 0 0 587.29216,430.69091 288.79035,288.79035 0 0 1 449.48869,485.6507 Z"
         id="path381"
         style="stroke-width:0.824479" />
      <path
         class="cls-5"
         d="M 485.27109,518.35779 C 376.4893,574.18329 248.98358,555.03063 161.71245,479.84637 226.50003,562.90441 339.45369,599.29692 444.245,562.15413 A 250.93027,250.93027 0 0 0 589.63368,428.1845 290.44756,290.44756 0 0 1 485.27109,518.35779 Z"
         id="path383"
         style="stroke-width:0.824479" />
      <text
         xml:space="preserve"
         id="text563"
         style="font-style:normal;font-variant:normal;font-weight:normal;font-stretch:normal;font-size:400px;line-height:1.25;font-family:serif;-inkscape-font-specification:serif;white-space:pre;shape-inside:url(#rect565);fill:#000000;fill-opacity:1;stroke:none;"><tspan
           style="visibility:hidden"
           x="667.52734"
           y="1421.0957"><tspan
             dx="0 240.82031 169.33594 178.71094 193.35938 192.1875"
             style="font-size:300px">Dxandi</tspan></tspan></text>
      <text
         xml:space="preserve"
         id="text575"
         style="font-style:normal;font-variant:normal;font-weight:normal;font-stretch:normal;font-size:40px;line-height:1.25;font-family:serif;-inkscape-font-specification:serif;white-space:pre;shape-inside:url(#rect577);fill:#000000;fill-opacity:1;stroke:none;" />
      <text
         xml:space="preserve"
         id="text581"
         style="font-style:normal;font-variant:normal;font-weight:normal;font-stretch:normal;font-size:40px;line-height:1.25;font-family:serif;-inkscape-font-specification:serif;white-space:pre;shape-inside:url(#rect583);fill:#000000;fill-opacity:1;stroke:none;" />
      <text
         xml:space="preserve"
         id="text587"
         style="font-style:normal;font-weight:normal;font-size:40px;line-height:1.25;font-family:sans-serif;white-space:pre;shape-inside:url(#rect589);fill:#000000;fill-opacity:1;stroke:none;" />
      <text
         xml:space="preserve"
         style="font-style:normal;font-weight:normal;font-size:505.538px;line-height:1.25;font-family:sans-serif;fill:#000000;fill-opacity:1;stroke:none;stroke-width:12.6384"
         x="608.16193"
         y="544.39392"
         id="text595"><tspan
           sodipodi:role="line"
           id="tspan593"
           x="608.16193"
           y="544.39392"
           style="font-style:normal;font-variant:normal;font-weight:normal;font-stretch:normal;font-family:serif;-inkscape-font-specification:serif;stroke-width:12.6384">Dxandi</tspan></text>
    </g>
  </g>
</svg>
