<?xml version="1.0" encoding="UTF-8" standalone="no"?>
<svg
   xmlns:dc="http://purl.org/dc/elements/1.1/"
   xmlns:cc="http://creativecommons.org/ns#"
   xmlns:rdf="http://www.w3.org/1999/02/22-rdf-syntax-ns#"
   xmlns:svg="http://www.w3.org/2000/svg"
   xmlns="http://www.w3.org/2000/svg"
   xmlns:sodipodi="http://sodipodi.sourceforge.net/DTD/sodipodi-0.dtd"
   xmlns:inkscape="http://www.inkscape.org/namespaces/inkscape"
   width="606.711"
   height="627.17194"
   viewBox="0 0 160.52562 165.93923"
   version="1.1"
   id="svg8"
   inkscape:version="1.0 (b51213c273, 2020-08-10)"
   sodipodi:docname="logo-mobile.svg">
  <defs
     id="defs2">
    <style
       id="style268">.cls-1{opacity:0.3;}.cls-2{fill:#9acf87;}.cls-3{fill:#bcdda4;}.cls-4{fill:#e3e985;}.cls-5{fill:#00a39d;}</style>
  </defs>
  <sodipodi:namedview
     id="base"
     pagecolor="#ffffff"
     bordercolor="#666666"
     borderopacity="1.0"
     inkscape:pageopacity="0.0"
     inkscape:pageshadow="2"
     inkscape:zoom="0.35"
     inkscape:cx="406.83624"
     inkscape:cy="561.04572"
     inkscape:document-units="mm"
     inkscape:current-layer="layer1"
     inkscape:document-rotation="0"
     showgrid="false"
     inkscape:window-width="1920"
     inkscape:window-height="1015"
     inkscape:window-x="1920"
     inkscape:window-y="0"
     inkscape:window-maximized="1"
     lock-margins="true"
     fit-margin-top="20"
     fit-margin-left="20"
     fit-margin-right="20"
     fit-margin-bottom="20"
     units="px" />
  <metadata
     id="metadata5">
    <rdf:RDF>
      <cc:Work
         rdf:about="">
        <dc:format>image/svg+xml</dc:format>
        <dc:type
           rdf:resource="http://purl.org/dc/dcmitype/StillImage" />
        <dc:title></dc:title>
      </cc:Work>
    </rdf:RDF>
  </metadata>
  <g
     inkscape:label="Layer 1"
     inkscape:groupmode="layer"
     id="layer1"
     transform="translate(1.8087539,0.27668121)">
    <g
       id="g362">
      <g
         class="cls-1"
         id="g278"
         transform="matrix(0.26458333,0,0,0.26458333,-29.343941,-17.130429)">
        <path
           class="cls-2"
           d="M 674.81,461.43 C 665.87,331.35 553.16,233.14 423.08,242.09 293,251.04 194.79,363.73 203.73,493.82 a 235,235 0 0 0 58,139.47 394.49,394.49 0 0 0 412.68,-134.18 237.69,237.69 0 0 0 0.4,-37.68 z"
           id="path272" />
        <path
           class="cls-3"
           d="m 674.46,499.28 c 3.75,-26.55 12.57,-53.16 14.17,-82.69 C 697,262.44 580.44,130.86 426.3,122.5 c -154.14,-8.36 -285.88,109.84 -294.24,264 -0.33,6.21 -0.44,12.38 -0.38,18.51 a 392.38,392.38 0 0 0 215.77,149.73 c 115.55,31.6 235.05,6.87 327.01,-55.46 z"
           id="path274" />
        <path
           class="cls-4"
           d="M 392.55,84.17 C 283.94,78.28 185.19,128.1 124.07,208.7 c 54.1,170.68 209.22,298.38 398.59,308.65 a 442.32,442.32 0 0 0 151.8,-18.07 315.21,315.21 0 0 0 15.85,-83.22 C 699.74,242.18 566.43,93.59 392.55,84.17 Z"
           id="path276" />
      </g>
      <path
         class="cls-2"
         d="M 148.95612,104.22601 C 145.1911,73.711612 117.39927,52.029008 86.88487,55.807258 56.370475,59.585508 34.685225,87.350882 38.452891,117.86528 a 55.403749,55.403749 0 0 0 15.443729,32.0966 93.016915,93.016915 0 0 0 95.44579,-36.85646 56.091666,56.091666 0 0 0 -0.38629,-8.87941 z"
         id="path280"
         style="stroke-width:0.264583" />
      <path
         class="cls-3"
         d="m 149.35829,113.14247 c 0.54239,-6.29709 2.2807,-12.67619 2.2807,-19.650609 0,-36.398728 -29.12004,-65.881249 -65.521412,-65.881249 -36.401374,0 -65.910353,29.49575 -65.910353,65.897124 0,1.465792 0.05292,2.910417 0.148167,4.360334 a 92.519499,92.519499 0 0 0 52.712937,32.50671 c 27.614561,5.96635 55.432851,-1.38113 76.289961,-17.23231 z"
         id="path282"
         style="stroke-width:0.264583" />
      <path
         class="cls-4"
         d="M 77.682662,19.001071 A 74.271187,74.271187 0 0 0 16.055913,51.748549 c 14.925145,39.497 53.07277,67.585171 97.789997,67.585171 a 104.30404,104.30404 0 0 0 35.51238,-6.19125 74.464332,74.464332 0 0 0 2.66964,-19.79613 c 0,-41.060687 -33.28458,-74.345269 -74.345268,-74.345269 z"
         id="path284"
         style="stroke-width:0.264583" />
      <path
         class="cls-5"
         d="M 122.2332,116.48415 C 68.580995,116.71169 23.321371,80.299736 10.160996,30.759154 14.195892,78.325945 52.13185,117.38109 101.28614,121.30222 a 98.954165,98.954165 0 0 0 48.0695,-8.15446 115.7896,115.7896 0 0 1 -27.12244,3.33639 z"
         id="path286"
         style="stroke-width:0.264583" />
      <path
         class="cls-5"
         d="M 104.65693,131.1553 C 58.632662,136.76182 16.368121,107.7529 3.9591627,64.578195 c 0.127,1.029229 0.2645834,2.061104 0.4365625,3.092979 7.5115208,46.302086 51.1360198,77.739876 97.4354548,70.228356 a 84.547603,84.547603 0 0 0 47.04821,-24.38136 92.675603,92.675603 0 0 1 -44.22246,17.63713 z"
         id="path288"
         style="stroke-width:0.264583" />
      <path
         class="cls-5"
         d="m 116.13985,141.65132 c -34.909126,17.91494 -75.826938,11.76867 -103.833083,-12.35869 20.790958,26.65413 57.038874,38.33283 90.667413,26.41336 a 80.525936,80.525936 0 0 0 46.65663,-42.99215 93.207415,93.207415 0 0 1 -33.49096,28.93748 z"
         id="path290"
         style="stroke-width:0.264583" />
    </g>
  </g>
</svg>
